<svg width="131" height="73" viewBox="0 0 131 73" fill="none" xmlns="http://www.w3.org/2000/svg">
<path opacity="0.5" d="M34.7864 10.1239C34.4861 9.95869 34.1222 9.95869 33.822 10.1239L10.5178 22.951C10.1984 23.1268 10 23.4625 10 23.8271V49.4813C10 49.8458 10.1984 50.1815 10.5178 50.3573L33.822 63.1844C34.1222 63.3496 34.4861 63.3496 34.7864 63.1844L58.0905 50.3573C58.4099 50.1815 58.6083 49.8458 58.6083 49.4813V36.6542V23.8271C58.6083 23.4625 58.4099 23.1268 58.0905 22.951L34.7864 10.1239Z" fill="white"/>
<path fill-rule="evenodd" clip-rule="evenodd" d="M34.7864 10.1239C34.4861 9.95869 34.1222 9.95869 33.822 10.1239L10.5178 22.951C10.1984 23.1268 10 23.4625 10 23.8271V49.4813C10 49.8458 10.1984 50.1815 10.5178 50.3573L33.822 63.1844C34.1222 63.3496 34.4861 63.3496 34.7864 63.1844L58.0905 50.3573C58.4099 50.1815 58.6083 49.8458 58.6083 49.4813V36.6542V23.8271C58.6083 23.4625 58.4099 23.1268 58.0905 22.951L34.7864 10.1239ZM33.0994 60.5037L34.3042 61.1669L56.6083 48.8902V36.6542V24.4181L34.3042 12.1415L33.7825 12.4286L15.8041 25.5229V47.6698L33.0994 60.5037Z" fill="#160F26"/>
<path fill-rule="evenodd" clip-rule="evenodd" d="M59.0549 21.1989C60.0131 21.7263 60.6083 22.7334 60.6083 23.8271V49.4813C60.6083 50.575 60.0131 51.582 59.0549 52.1094L35.7508 64.9365C34.8501 65.4323 33.7583 65.4323 32.8576 64.9365L9.55341 52.1094C8.59522 51.582 8 50.575 8 49.4813V23.8271C8 22.7334 8.59523 21.7263 9.5534 21.1989L32.8576 8.37182C33.7583 7.87606 34.8501 7.87606 35.7508 8.37182L59.0549 21.1989ZM33.822 10.1239C34.1222 9.95869 34.4861 9.95869 34.7864 10.1239L58.0905 22.951C58.4099 23.1268 58.6083 23.4625 58.6083 23.8271V49.4813C58.6083 49.8458 58.4099 50.1815 58.0905 50.3573L34.7864 63.1844C34.4861 63.3496 34.1222 63.3496 33.822 63.1844L10.5178 50.3573C10.1984 50.1815 10 49.8458 10 49.4813V23.8271C10 23.4625 10.1984 23.1268 10.5178 22.951L33.822 10.1239Z" fill="white"/>
<path d="M116.574 28.3721V29.2401H120.886V30.8921H116.574V42.2601H114.67V30.8921H112.15V29.2401H114.67V28.3441C114.67 25.6841 116.042 23.9481 118.814 23.9481C119.766 23.9481 120.438 24.0881 120.97 24.2001L120.858 25.7121C120.214 25.6001 119.654 25.5161 119.038 25.5161C117.246 25.5161 116.574 26.5521 116.574 28.3721Z" fill="white"/>
<path d="M106.087 42.5961C102.195 42.5961 100.711 40.8881 100.123 38.2281L101.915 37.8641C102.363 39.6561 103.371 41.0281 106.115 41.0281C108.187 41.0281 109.223 40.2441 109.223 38.8161C109.223 37.4441 108.243 36.8841 105.387 36.4081C102.083 35.8481 100.823 34.6441 100.823 32.6281C100.823 30.4441 102.447 28.9321 105.611 28.9321C108.887 28.9321 110.119 30.4161 110.707 32.7401L108.915 33.1601C108.439 31.1721 107.403 30.4721 105.583 30.4721C103.679 30.4721 102.699 31.2281 102.699 32.5441C102.699 33.6921 103.511 34.4761 106.143 34.8961C109.727 35.4841 111.127 36.6601 111.127 38.7601C111.127 41.0281 109.615 42.5961 106.087 42.5961Z" fill="white"/>
<path d="M93.3998 42.5961C89.5078 42.5961 88.0238 40.8881 87.4358 38.2281L89.2278 37.8641C89.6758 39.6561 90.6838 41.0281 93.4278 41.0281C95.4998 41.0281 96.5358 40.2441 96.5358 38.8161C96.5358 37.4441 95.5558 36.8841 92.6998 36.4081C89.3958 35.8481 88.1358 34.6441 88.1358 32.6281C88.1358 30.4441 89.7598 28.9321 92.9238 28.9321C96.1998 28.9321 97.4318 30.4161 98.0198 32.7401L96.2278 33.1601C95.7518 31.1721 94.7158 30.4721 92.8958 30.4721C90.9918 30.4721 90.0118 31.2281 90.0118 32.5441C90.0118 33.6921 90.8238 34.4761 93.4558 34.8961C97.0398 35.4841 98.4398 36.6601 98.4398 38.7601C98.4398 41.0281 96.9278 42.5961 93.3998 42.5961Z" fill="white"/>
<path d="M79.2241 42.5681C75.1081 42.5681 72.7841 39.9361 72.7841 35.7081C72.7841 31.4521 75.3601 28.9321 79.2241 28.9321C83.0881 28.9321 85.6641 31.4521 85.6641 35.7081C85.6641 39.9361 83.3121 42.5681 79.2241 42.5681ZM79.2241 30.6401C76.3121 30.6401 74.7161 32.5441 74.7161 35.6801C74.7161 38.8161 76.1721 40.8601 79.1961 40.8601C82.2201 40.8601 83.7321 38.8161 83.7321 35.6801C83.7321 32.5441 82.1361 30.6401 79.2241 30.6401Z" fill="white"/>
</svg>
