<?xml version="1.0" encoding="UTF-8" standalone="no"?>
<svg
   width="65.423737"
   height="61.55508"
   viewBox="0 0 65.423737 61.555081"
   fill="none"
   version="1.1"
   id="svg7"
   sodipodi:docname="ossf-icon.svg"
   inkscape:version="1.3.2 (091e20e, 2023-11-25)"
   xmlns:inkscape="http://www.inkscape.org/namespaces/inkscape"
   xmlns:sodipodi="http://sodipodi.sourceforge.net/DTD/sodipodi-0.dtd"
   xmlns="http://www.w3.org/2000/svg"
   xmlns:svg="http://www.w3.org/2000/svg">
  <defs
     id="defs7" />
  <sodipodi:namedview
     id="namedview7"
     pagecolor="#505050"
     bordercolor="#eeeeee"
     borderopacity="1"
     inkscape:showpageshadow="0"
     inkscape:pageopacity="0"
     inkscape:pagecheckerboard="0"
     inkscape:deskcolor="#505050"
     inkscape:zoom="3.2328767"
     inkscape:cx="63.875"
     inkscape:cy="30.004237"
     inkscape:window-width="1624"
     inkscape:window-height="985"
     inkscape:window-x="0"
     inkscape:window-y="38"
     inkscape:window-maximized="0"
     inkscape:current-layer="svg7" />
  <path
     opacity="0.5"
     d="m 33.23979,3.9374593 c -0.3003,-0.16521 -0.6642,-0.16521 -0.9644,0 L 8.9711898,16.764559 c -0.3194,0.1758 -0.5178,0.5115 -0.5178,0.8761 v 25.6542 c 0,0.3645 0.1984,0.7002 0.5178,0.876 l 23.3042002,12.8271 c 0.3002,0.1652 0.6641,0.1652 0.9644,0 l 23.3041,-12.8271 c 0.3194,-0.1758 0.5178,-0.5115 0.5178,-0.876 v -12.8271 -12.8271 c 0,-0.3646 -0.1984,-0.7003 -0.5178,-0.8761 z"
     fill="#ffffff"
     id="path1" />
  <path
     fill-rule="evenodd"
     clip-rule="evenodd"
     d="m 33.23979,3.9374593 c -0.3003,-0.16521 -0.6642,-0.16521 -0.9644,0 L 8.9711898,16.764559 c -0.3194,0.1758 -0.5178,0.5115 -0.5178,0.8761 v 25.6542 c 0,0.3645 0.1984,0.7002 0.5178,0.876 l 23.3042002,12.8271 c 0.3002,0.1652 0.6641,0.1652 0.9644,0 l 23.3041,-12.8271 c 0.3194,-0.1758 0.5178,-0.5115 0.5178,-0.876 v -12.8271 -12.8271 c 0,-0.3646 -0.1984,-0.7003 -0.5178,-0.8761 z m -1.687,50.3797997 1.2048,0.6632 22.3041,-12.2767 v -12.236 -12.2361 l -22.3041,-12.2765997 -0.5217,0.2871 -17.9784,13.0942997 v 22.1469 z"
     fill="#160f26"
     id="path2" />
  <path
     fill-rule="evenodd"
     clip-rule="evenodd"
     d="m 57.50829,15.012459 c 0.9582,0.5274 1.5534,1.5345 1.5534,2.6282 v 25.6542 c 0,1.0937 -0.5952,2.1007 -1.5534,2.6281 l -23.3041,12.8271 c -0.9007,0.4958 -1.9925,0.4958 -2.8932,0 L 8.0067998,45.922959 c -0.95819,-0.5274 -1.55341,-1.5344 -1.55341,-2.6281 v -25.6542 c 0,-1.0937 0.59523,-2.1008 1.5534,-2.6282 L 31.31099,2.1853793 c 0.9007,-0.49576 1.9925,-0.49576 2.8932,0 z M 32.27539,3.9374593 c 0.3002,-0.16521 0.6641,-0.16521 0.9644,0 l 23.3041,12.8270997 c 0.3194,0.1758 0.5178,0.5115 0.5178,0.8761 v 25.6542 c 0,0.3645 -0.1984,0.7002 -0.5178,0.876 l -23.3041,12.8271 c -0.3003,0.1652 -0.6642,0.1652 -0.9644,0 L 8.9711898,44.170859 c -0.3194,-0.1758 -0.5178,-0.5115 -0.5178,-0.876 v -25.6542 c 0,-0.3646 0.1984,-0.7003 0.5178,-0.8761 z"
     fill="#ffffff"
     id="path3" />
</svg>
