<svg width="280" height="304" viewBox="0 0 280 304" fill="none" xmlns="http://www.w3.org/2000/svg">
<path opacity="0.5" d="M139.518 20.1239C139.818 19.9587 140.182 19.9587 140.482 20.1239L259.482 85.6239C259.802 85.7997 260 86.1354 260 86.5V217.5C260 217.865 259.802 218.2 259.482 218.376L140.482 283.876C140.182 284.041 139.818 284.041 139.518 283.876L20.5178 218.376C20.1984 218.2 20 217.865 20 217.5V86.5C20 86.1354 20.1984 85.7997 20.5178 85.6239L139.518 20.1239Z" fill="white"/>
<path fill-rule="evenodd" clip-rule="evenodd" d="M139.518 20.1239C139.818 19.9587 140.182 19.9587 140.482 20.1239L259.482 85.6239C259.802 85.7997 260 86.1354 260 86.5V217.5C260 217.865 259.802 218.2 259.482 218.376L140.482 283.876C140.182 284.041 139.818 284.041 139.518 283.876L20.5178 218.376C20.1984 218.2 20 217.865 20 217.5V86.5C20 86.1354 20.1984 85.7997 20.5178 85.6239L139.518 20.1239ZM22 87.0911V216.909L140 281.859L258 216.909V87.0911L140 22.1415L22 87.0911Z" fill="#160F26"/>
<path fill-rule="evenodd" clip-rule="evenodd" d="M36 213.603V89.3215L140 22L139.258 20.4559L25.4046 84.4298L22 85.5319V218.468L24.7391 219.355L139.258 283.703L140 282.159L36 213.603Z" fill="#160F26"/>
<path fill-rule="evenodd" clip-rule="evenodd" d="M138.553 18.3718C139.454 17.8761 140.546 17.8761 141.447 18.3718L260.447 83.8718C261.405 84.3992 262 85.4063 262 86.5V217.5C262 218.594 261.405 219.601 260.447 220.128L141.447 285.628C140.546 286.124 139.454 286.124 138.553 285.628L19.5534 220.128C18.5952 219.601 18 218.594 18 217.5V86.5C18 85.4063 18.5952 84.3992 19.5534 83.8718L138.553 18.3718ZM140.482 20.1239C140.182 19.9587 139.818 19.9587 139.518 20.1239L20.5178 85.6239C20.1984 85.7997 20 86.1354 20 86.5V217.5C20 217.865 20.1984 218.2 20.5178 218.376L139.518 283.876C139.818 284.041 140.182 284.041 140.482 283.876L259.482 218.376C259.802 218.2 260 217.865 260 217.5V86.5C260 86.1354 259.802 85.7997 259.482 85.6239L140.482 20.1239Z" fill="white"/>
<path d="M161.062 186.114H161.256C161.86 184.18 163.408 182.947 165.415 182.947C168.05 182.947 169.211 184.64 169.211 187.106V194.456H167.542V187.468C167.542 185.776 166.865 184.47 164.834 184.47C162.586 184.47 161.087 185.873 161.087 187.976V194.456H159.418V183.213H161.062V186.114Z" fill="#160F26"/>
<path d="M151.409 194.722C147.855 194.722 145.848 192.449 145.848 188.798C145.848 185.123 148.072 182.947 151.409 182.947C154.745 182.947 156.97 185.123 156.97 188.798C156.97 192.449 154.939 194.722 151.409 194.722ZM151.409 184.422C148.894 184.422 147.516 186.066 147.516 188.774C147.516 191.482 148.773 193.247 151.385 193.247C153.996 193.247 155.301 191.482 155.301 188.774C155.301 186.066 153.923 184.422 151.409 184.422Z" fill="#160F26"/>
<path d="M143.148 194.456H141.48V183.213H143.148V194.456ZM143.342 180.819H141.286V179.127H143.342V180.819Z" fill="#160F26"/>
<path d="M131.697 183.213H133.534V179.973H135.178V183.213H138.998V184.64H135.178V191.047C135.178 192.449 135.734 193.175 137.088 193.175C137.717 193.175 138.2 193.078 138.877 192.884L139.119 194.359C138.37 194.601 137.741 194.722 136.798 194.722C134.55 194.722 133.534 193.247 133.534 191.168V184.64H131.697V183.213Z" fill="#160F26"/>
<path d="M123.903 194.698C121.702 194.698 120.348 193.755 120.348 191.603C120.348 189.741 121.606 188.315 124.289 188.315H128.158V187.275C128.158 185.413 127.433 184.374 125.402 184.374C123.709 184.374 122.766 185.22 122.379 186.864L120.784 186.453C121.291 184.253 122.887 182.971 125.426 182.971C128.472 182.971 129.802 184.47 129.802 187.251V194.456H128.231V191.772H128.037C127.457 193.682 125.958 194.698 123.903 194.698ZM128.158 189.548H124.483C122.863 189.548 121.968 190.201 121.968 191.458C121.968 192.425 122.573 193.32 124.362 193.32C126.659 193.32 128.158 192.038 128.158 190.321V189.548Z" fill="#160F26"/>
<path d="M107.361 188.871C107.361 185.051 109.029 182.947 111.858 182.947C114.228 182.947 115.509 184.349 116.041 186.26H116.186V178.934H117.83V194.456H116.186V191.434H116.041C115.485 193.32 114.058 194.722 111.834 194.722C108.981 194.722 107.361 192.643 107.361 188.871ZM116.186 189.306V188.436C116.186 186.066 114.735 184.47 112.487 184.47C110.166 184.47 109.005 185.897 109.005 188.871C109.005 191.821 110.117 193.223 112.487 193.223C114.735 193.223 116.186 191.7 116.186 189.306Z" fill="#160F26"/>
<path d="M96.8863 186.114H97.0797C97.6842 184.18 99.2316 182.947 101.238 182.947C103.874 182.947 105.034 184.64 105.034 187.106V194.456H103.366V187.468C103.366 185.776 102.689 184.47 100.658 184.47C98.4095 184.47 96.9105 185.873 96.9105 187.976V194.456H95.2422V183.213H96.8863V186.114Z" fill="#160F26"/>
<path d="M90.4011 191.555H90.2077C89.6032 193.489 88.08 194.722 86.049 194.722C83.4136 194.722 82.2531 193.029 82.2531 190.563V183.213H83.9213V190.225C83.9213 191.893 84.5983 193.199 86.6293 193.199C88.8779 193.199 90.3769 191.796 90.3769 189.693V183.213H92.0452V194.456H90.4011V191.555Z" fill="#160F26"/>
<path d="M74.3643 194.722C70.8101 194.722 68.8033 192.449 68.8033 188.798C68.8033 185.123 71.0277 182.947 74.3643 182.947C77.7009 182.947 79.9253 185.123 79.9253 188.798C79.9253 192.449 77.8944 194.722 74.3643 194.722ZM74.3643 184.422C71.8498 184.422 70.4716 186.066 70.4716 188.774C70.4716 191.482 71.7289 193.247 74.3402 193.247C76.9514 193.247 78.257 191.482 78.257 188.774C78.257 186.066 76.8789 184.422 74.3643 184.422Z" fill="#160F26"/>
<path d="M64.3279 182.464V183.213H68.0514V184.64H64.3279V194.456H62.6838V184.64H60.5078V183.213H62.6838V182.439C62.6838 180.142 63.8685 178.643 66.2622 178.643C67.0842 178.643 67.6645 178.764 68.1239 178.861L68.0272 180.167C67.4711 180.07 66.9875 179.997 66.4556 179.997C64.9082 179.997 64.3279 180.892 64.3279 182.464Z" fill="#160F26"/>
<path d="M143.924 171.722C140.442 171.722 138.363 169.546 138.363 165.871C138.363 162.147 140.563 159.947 143.876 159.947C147.188 159.947 148.88 162.026 148.88 165.121C148.88 165.411 148.88 165.871 148.832 166.306H140.031C140.176 168.845 141.506 170.295 143.924 170.295C146.148 170.295 146.922 169.135 147.333 167.708L148.808 168.143C148.252 170.368 146.753 171.722 143.924 171.722ZM140.055 165.025H147.333C147.236 162.679 146.197 161.325 143.827 161.325C141.627 161.325 140.297 162.583 140.055 165.025Z" fill="#160F26"/>
<path d="M133.011 163.235H133.156C133.688 161.059 134.921 160.092 136.735 160.092H137.194V161.906H136.662C134.172 161.906 133.06 162.969 133.06 165.677V171.456H131.391V160.213H133.011V163.235Z" fill="#160F26"/>
<path d="M122.391 171.698C120.191 171.698 118.837 170.755 118.837 168.603C118.837 166.741 120.095 165.315 122.778 165.315H126.647V164.275C126.647 162.413 125.922 161.374 123.891 161.374C122.198 161.374 121.255 162.22 120.868 163.864L119.272 163.453C119.78 161.253 121.376 159.971 123.915 159.971C126.961 159.971 128.291 161.47 128.291 164.251V171.456H126.719V168.772H126.526C125.946 170.682 124.447 171.698 122.391 171.698ZM126.647 166.548H122.972C121.352 166.548 120.457 167.201 120.457 168.458C120.457 169.425 121.062 170.32 122.851 170.32C125.148 170.32 126.647 169.038 126.647 167.321V166.548Z" fill="#160F26"/>
<path d="M110.312 160.213L111.642 164.565C112.174 166.33 112.706 168.192 113.141 170.054H113.576C114.012 168.168 114.544 166.427 115.124 164.493L116.381 160.213H118.074L114.399 171.456H112.223L110.723 166.475C110.216 164.855 109.805 163.235 109.442 161.591H109.104C108.741 163.235 108.306 164.855 107.822 166.475L106.347 171.456H104.22L100.52 160.213H102.237L103.543 164.493C104.171 166.403 104.727 168.168 105.162 170.054H105.598C106.033 168.216 106.565 166.33 107.073 164.565L108.378 160.213H110.312Z" fill="#160F26"/>
<path d="M92.3597 160.213H94.1973V156.973H95.8414V160.213H99.6616V161.64H95.8414V168.047C95.8414 169.449 96.3975 170.175 97.7515 170.175C98.3801 170.175 98.8637 170.078 99.5407 169.884L99.7825 171.359C99.0329 171.601 98.4043 171.722 97.4613 171.722C95.2128 171.722 94.1973 170.247 94.1973 168.168V161.64H92.3597V160.213Z" fill="#160F26"/>
<path d="M87.845 159.464V160.213H91.5684V161.64H87.845V171.456H86.2009V161.64H84.0248V160.213H86.2009V159.439C86.2009 157.142 87.3856 155.643 89.7793 155.643C90.6013 155.643 91.1816 155.764 91.641 155.861L91.5443 157.167C90.9882 157.07 90.5046 156.997 89.9727 156.997C88.4253 156.997 87.845 157.892 87.845 159.464Z" fill="#160F26"/>
<path d="M77.363 171.722C73.8088 171.722 71.802 169.449 71.802 165.798C71.802 162.123 74.0264 159.947 77.363 159.947C80.6996 159.947 82.924 162.123 82.924 165.798C82.924 169.449 80.893 171.722 77.363 171.722ZM77.363 161.422C74.8485 161.422 73.4703 163.066 73.4703 165.774C73.4703 168.482 74.7276 170.247 77.3388 170.247C79.9501 170.247 81.2557 168.482 81.2557 165.774C81.2557 163.066 79.8775 161.422 77.363 161.422Z" fill="#160F26"/>
<path d="M65.827 171.746C62.4662 171.746 61.1847 170.271 60.677 167.974L62.2244 167.66C62.6113 169.207 63.4817 170.392 65.8511 170.392C67.6403 170.392 68.5349 169.715 68.5349 168.482C68.5349 167.297 67.6887 166.814 65.2225 166.403C62.3695 165.919 61.2815 164.879 61.2815 163.139C61.2815 161.253 62.6838 159.947 65.4159 159.947C68.2448 159.947 69.3086 161.229 69.8164 163.235L68.269 163.598C67.8579 161.881 66.9633 161.277 65.3918 161.277C63.7476 161.277 62.9014 161.93 62.9014 163.066C62.9014 164.057 63.6026 164.734 65.8753 165.097C68.9701 165.605 70.179 166.62 70.179 168.434C70.179 170.392 68.8734 171.746 65.827 171.746Z" fill="#160F26"/>
<path d="M132.543 148.722C129.062 148.722 126.982 146.546 126.982 142.871C126.982 139.147 129.182 136.947 132.495 136.947C135.807 136.947 137.5 139.026 137.5 142.121C137.5 142.411 137.5 142.871 137.451 143.306H128.65C128.796 145.845 130.125 147.295 132.543 147.295C134.768 147.295 135.541 146.135 135.952 144.708L137.427 145.143C136.871 147.368 135.372 148.722 132.543 148.722ZM128.675 142.025H135.952C135.856 139.679 134.816 138.325 132.446 138.325C130.246 138.325 128.916 139.583 128.675 142.025Z" fill="#160F26"/>
<path d="M123.652 141.348C123.241 139.534 122.346 138.446 120.146 138.446C117.776 138.446 116.326 139.945 116.326 142.847C116.326 145.555 117.704 147.223 120.218 147.223C122.564 147.223 123.265 145.893 123.724 144.249L125.272 144.66C124.716 147.223 123.168 148.722 120.243 148.722C116.713 148.722 114.633 146.546 114.633 142.847C114.633 139.147 116.882 136.947 120.17 136.947C123.241 136.947 124.716 138.422 125.223 141.009L123.652 141.348Z" fill="#160F26"/>
<path d="M104.159 140.114H104.352C104.957 138.18 106.504 136.947 108.511 136.947C111.146 136.947 112.307 138.64 112.307 141.106V148.456H110.638V141.468C110.638 139.776 109.961 138.47 107.93 138.47C105.682 138.47 104.183 139.873 104.183 141.976V148.456H102.515V137.213H104.159V140.114Z" fill="#160F26"/>
<path d="M95.0953 148.722C91.6136 148.722 89.5343 146.546 89.5343 142.871C89.5343 139.147 91.7345 136.947 95.0469 136.947C98.3594 136.947 100.052 139.026 100.052 142.121C100.052 142.411 100.052 142.871 100.003 143.306H91.2026C91.3477 145.845 92.6775 147.295 95.0953 147.295C97.3197 147.295 98.0934 146.135 98.5044 144.708L99.9793 145.143C99.4232 147.368 97.9241 148.722 95.0953 148.722ZM91.2268 142.025H98.5044C98.4077 139.679 97.368 138.325 94.9986 138.325C92.7984 138.325 91.4686 139.583 91.2268 142.025Z" fill="#160F26"/>
<path d="M86.8346 148.456H85.1663V137.213H86.8346V148.456ZM87.028 134.819H84.9729V133.127H87.028V134.819Z" fill="#160F26"/>
<path d="M80.8205 141.348C80.4094 139.534 79.5149 138.446 77.3146 138.446C74.9452 138.446 73.4945 139.945 73.4945 142.847C73.4945 145.555 74.8726 147.223 77.3872 147.223C79.7325 147.223 80.4336 145.893 80.893 144.249L82.4404 144.66C81.8843 147.223 80.3369 148.722 77.4113 148.722C73.8813 148.722 71.802 146.546 71.802 142.847C71.802 139.147 74.0506 136.947 77.3388 136.947C80.4094 136.947 81.8843 138.422 82.3921 141.009L80.8205 141.348Z" fill="#160F26"/>
<path d="M65.827 148.746C62.4662 148.746 61.1847 147.271 60.677 144.974L62.2244 144.66C62.6113 146.207 63.4817 147.392 65.8511 147.392C67.6403 147.392 68.5349 146.715 68.5349 145.482C68.5349 144.297 67.6887 143.814 65.2225 143.403C62.3695 142.919 61.2815 141.879 61.2815 140.139C61.2815 138.253 62.6838 136.947 65.4159 136.947C68.2448 136.947 69.3086 138.229 69.8164 140.235L68.269 140.598C67.8579 138.881 66.9633 138.277 65.3918 138.277C63.7476 138.277 62.9014 138.93 62.9014 140.066C62.9014 141.057 63.6026 141.734 65.8753 142.097C68.9701 142.605 70.179 143.62 70.179 145.434C70.179 147.392 68.8734 148.746 65.827 148.746Z" fill="#160F26"/>
<path d="M101.231 117.114H101.424C102.029 115.18 103.576 113.947 105.583 113.947C108.218 113.947 109.379 115.64 109.379 118.106V125.456H107.711V118.468C107.711 116.776 107.034 115.47 105.003 115.47C102.754 115.47 101.255 116.873 101.255 118.976V125.456H99.5867V114.213H101.231V117.114Z" fill="#160F26"/>
<path d="M92.1674 125.722C88.6858 125.722 86.6064 123.546 86.6064 119.871C86.6064 116.147 88.8067 113.947 92.1191 113.947C95.4315 113.947 97.124 116.026 97.124 119.121C97.124 119.411 97.124 119.871 97.0756 120.306H88.2747C88.4198 122.845 89.7496 124.295 92.1674 124.295C94.3918 124.295 95.1655 123.135 95.5766 121.708L97.0514 122.143C96.4953 124.368 94.9963 125.722 92.1674 125.722ZM88.2989 119.025H95.5766C95.4799 116.679 94.4402 115.325 92.0707 115.325C89.8705 115.325 88.5407 116.583 88.2989 119.025Z" fill="#160F26"/>
<path d="M84.9102 119.847C84.9102 123.643 83.2419 125.722 80.4856 125.722C78.1887 125.722 76.738 124.32 76.2061 122.385H76.0852V129.155H74.4169V114.213H76.0852V117.235H76.2302C76.7863 115.325 78.0678 113.947 80.3647 113.947C83.3145 113.947 84.9102 116.051 84.9102 119.847ZM76.0852 120.282C76.0852 122.627 77.5359 124.247 79.7844 124.247C82.1055 124.247 83.2419 122.796 83.2419 119.847C83.2419 116.873 82.1297 115.47 79.7844 115.47C77.5359 115.47 76.0852 116.994 76.0852 119.436V120.282Z" fill="#160F26"/>
<path d="M66.4072 125.722C62.853 125.722 60.8463 123.449 60.8463 119.798C60.8463 116.123 63.0706 113.947 66.4072 113.947C69.7438 113.947 71.9682 116.123 71.9682 119.798C71.9682 123.449 69.9373 125.722 66.4072 125.722ZM66.4072 115.422C63.8927 115.422 62.5145 117.066 62.5145 119.774C62.5145 122.482 63.7718 124.247 66.3831 124.247C68.9943 124.247 70.2999 122.482 70.2999 119.774C70.2999 117.066 68.9218 115.422 66.4072 115.422Z" fill="#160F26"/>
</svg>
